<svg width="458" height="50" viewBox="0 0 458 50" fill="none" xmlns="http://www.w3.org/2000/svg">
<path d="M421.819 31.147C421.819 28.0708 422.577 25.0934 424.094 22.2149C425.61 19.3364 427.752 17.1391 430.521 15.6229C433.311 14.1068 436.421 13.3487 439.848 13.3487C445.144 13.3487 449.484 15.0736 452.868 18.5234C456.251 21.9512 457.943 26.2909 457.943 31.5425C457.943 36.8381 456.229 41.2327 452.802 44.7264C449.396 48.1982 445.1 49.9341 439.914 49.9341C436.706 49.9341 433.641 49.209 430.718 47.7587C427.818 46.3085 425.61 44.1881 424.094 41.3975C422.577 38.5849 421.819 35.1681 421.819 31.147ZM431.312 31.6414C431.312 35.1132 432.136 37.7719 433.784 39.6177C435.432 41.4634 437.464 42.3863 439.881 42.3863C442.298 42.3863 444.32 41.4634 445.946 39.6177C447.594 37.7719 448.418 35.0912 448.418 31.5755C448.418 28.1477 447.594 25.5109 445.946 23.6651C444.32 21.8194 442.298 20.8965 439.881 20.8965C437.464 20.8965 435.432 21.8194 433.784 23.6651C432.136 25.5109 431.312 28.1696 431.312 31.6414Z" fill="#9AFF9A"/>
<path d="M405.175 9.39352V0.823975H414.437V9.39352H405.175ZM405.175 49.143V14.1397H414.437V49.143H405.175Z" fill="#9AFF9A"/>
<path d="M396.012 49.143H387.41V44.0013C385.982 46.0009 384.29 47.495 382.334 48.4838C380.4 49.4507 378.445 49.9341 376.467 49.9341C372.446 49.9341 368.996 48.319 366.118 45.089C363.261 41.8369 361.833 37.3105 361.833 31.5095C361.833 25.5768 363.228 21.0723 366.019 17.996C368.81 14.8978 372.336 13.3487 376.599 13.3487C380.51 13.3487 383.894 14.9747 386.751 18.2267V0.823975H396.012V49.143ZM371.292 30.8833C371.292 34.6187 371.809 37.3214 372.842 38.9914C374.336 41.4085 376.423 42.617 379.104 42.617C381.235 42.617 383.048 41.7161 384.542 39.9143C386.037 38.0905 386.784 35.3768 386.784 31.7732C386.784 27.7521 386.058 24.8626 384.608 23.1048C383.158 21.325 381.301 20.435 379.038 20.435C376.841 20.435 374.995 21.314 373.501 23.0718C372.029 24.8077 371.292 27.4115 371.292 30.8833Z" fill="#9AFF9A"/>
<path d="M345.682 49.143V43.9024C344.408 45.7702 342.727 47.2424 340.639 48.319C338.574 49.3957 336.387 49.9341 334.08 49.9341C331.729 49.9341 329.62 49.4177 327.752 48.385C325.884 47.3522 324.533 45.902 323.698 44.0343C322.863 42.1665 322.445 39.5847 322.445 36.2887V14.1397H331.707V30.2241C331.707 35.1461 331.872 38.1674 332.201 39.2881C332.553 40.3867 333.179 41.2656 334.08 41.9248C334.981 42.5621 336.124 42.8807 337.508 42.8807C339.09 42.8807 340.507 42.4522 341.76 41.5952C343.012 40.7163 343.869 39.6396 344.331 38.3652C344.792 37.0688 345.023 33.9156 345.023 28.9057V14.1397H354.285V49.143H345.682Z" fill="#9AFF9A"/>
<path d="M316.216 14.1397V21.5227H309.887V35.6295C309.887 38.486 309.942 40.156 310.052 40.6394C310.184 41.1008 310.459 41.4853 310.876 41.793C311.316 42.1006 311.843 42.2544 312.458 42.2544C313.315 42.2544 314.557 41.9578 316.183 41.3645L316.974 48.5497C314.82 49.4726 312.381 49.934 309.657 49.934C307.987 49.934 306.481 49.6594 305.141 49.11C303.801 48.5387 302.812 47.8136 302.175 46.9347C301.559 46.0338 301.131 44.8253 300.889 43.3091C300.692 42.2324 300.593 40.0571 300.593 36.7831V21.5227H296.341V14.1397H300.593V7.18519L309.887 1.77979V14.1397H316.216Z" fill="#9AFF9A"/>
<path d="M252.735 33.4212L262.228 32.4984C262.799 35.6845 263.953 38.0246 265.689 39.5188C267.446 41.013 269.809 41.7601 272.775 41.7601C275.917 41.7601 278.279 41.1009 279.861 39.7825C281.465 38.4421 282.267 36.882 282.267 35.1022C282.267 33.9596 281.927 32.9927 281.246 32.2017C280.586 31.3887 279.422 30.6856 277.752 30.0923C276.609 29.6968 274.005 28.9936 269.94 27.9829C264.711 26.6864 261.041 25.0934 258.932 23.2037C255.965 20.5449 254.482 17.3039 254.482 13.4806C254.482 11.0196 255.174 8.72336 256.559 6.59196C257.965 4.43858 259.976 2.80158 262.59 1.68095C265.227 0.560316 268.402 0 272.116 0C278.18 0 282.74 1.32938 285.794 3.98813C288.87 6.64689 290.485 10.1956 290.639 14.6341L280.883 15.0626C280.466 12.5797 279.565 10.7998 278.18 9.72314C276.818 8.62448 274.764 8.07515 272.017 8.07515C269.182 8.07515 266.963 8.65744 265.359 9.82202C264.326 10.5691 263.81 11.5689 263.81 12.8214C263.81 13.964 264.293 14.9418 265.26 15.7548C266.491 16.7875 269.479 17.8642 274.225 18.9848C278.971 20.1055 282.476 21.2701 284.739 22.4786C287.025 23.6651 288.804 25.3021 290.079 27.3896C291.375 29.4551 292.023 32.0149 292.023 35.0692C292.023 37.8378 291.254 40.4307 289.716 42.8477C288.178 45.2648 286.003 47.0666 283.19 48.2531C280.378 49.4177 276.873 50 272.676 50C266.567 50 261.876 48.5937 258.602 45.7811C255.328 42.9466 253.373 38.8266 252.735 33.4212Z" fill="#9AFF9A"/>
<path d="M192.947 31.147C192.947 28.0708 193.705 25.0934 195.221 22.2149C196.738 19.3364 198.88 17.1391 201.649 15.6229C204.439 14.1068 207.548 13.3487 210.976 13.3487C216.272 13.3487 220.612 15.0736 223.995 18.5234C227.379 21.9512 229.071 26.2909 229.071 31.5425C229.071 36.8381 227.357 41.2327 223.93 44.7264C220.524 48.1982 216.228 49.9341 211.042 49.9341C207.834 49.9341 204.769 49.209 201.846 47.7587C198.946 46.3085 196.738 44.1881 195.221 41.3975C193.705 38.5849 192.947 35.1681 192.947 31.147ZM202.44 31.6414C202.44 35.1132 203.264 37.7719 204.912 39.6177C206.56 41.4634 208.592 42.3863 211.009 42.3863C213.426 42.3863 215.448 41.4634 217.074 39.6177C218.722 37.7719 219.546 35.0912 219.546 31.5755C219.546 28.1477 218.722 25.5109 217.074 23.6651C215.448 21.8194 213.426 20.8965 211.009 20.8965C208.592 20.8965 206.56 21.8194 204.912 23.6651C203.264 25.5109 202.44 28.1696 202.44 31.6414Z" fill="#9AFF9A"/>
<path d="M185.926 49.143H177.324V44.0013C175.896 46.0009 174.204 47.495 172.248 48.4838C170.314 49.4507 168.359 49.9341 166.381 49.9341C162.36 49.9341 158.91 48.319 156.032 45.089C153.175 41.8369 151.747 37.3105 151.747 31.5095C151.747 25.5768 153.142 21.0723 155.933 17.996C158.724 14.8978 162.25 13.3487 166.513 13.3487C170.424 13.3487 173.808 14.9747 176.665 18.2267V0.823975H185.926V49.143ZM161.207 30.8833C161.207 34.6187 161.723 37.3214 162.756 38.9914C164.25 41.4085 166.337 42.617 169.018 42.617C171.149 42.617 172.962 41.7161 174.456 39.9143C175.951 38.0905 176.698 35.3768 176.698 31.7732C176.698 27.7521 175.973 24.8626 174.522 23.1048C173.072 21.325 171.215 20.435 168.952 20.435C166.755 20.435 164.909 21.314 163.415 23.0718C161.943 24.8077 161.207 27.4115 161.207 30.8833Z" fill="#9AFF9A"/>
<path d="M144.396 49.1431H135.135V31.2788C135.135 27.4995 134.937 25.0604 134.541 23.9618C134.146 22.8411 133.498 21.9732 132.597 21.358C131.718 20.7427 130.652 20.4351 129.4 20.4351C127.796 20.4351 126.356 20.8745 125.082 21.7535C123.807 22.6324 122.928 23.797 122.445 25.2472C121.984 26.6974 121.753 29.3782 121.753 33.2894V49.1431H112.491V14.1398H121.094V19.2815C124.148 15.3263 127.993 13.3487 132.63 13.3487C134.673 13.3487 136.541 13.7223 138.233 14.4694C139.925 15.1945 141.199 16.1283 142.056 17.2709C142.935 18.4135 143.539 19.71 143.869 21.1602C144.221 22.6104 144.396 24.6869 144.396 27.3896V49.1431Z" fill="#9AFF9A"/>
<path d="M81.9045 24.8187L73.4998 23.3026C74.4446 19.9187 76.0706 17.4138 78.3778 15.7877C80.685 14.1617 84.1128 13.3487 88.6613 13.3487C92.7923 13.3487 95.8685 13.8431 97.8901 14.8319C99.9116 15.7987 101.329 17.0402 102.142 18.5564C102.977 20.0505 103.394 22.8082 103.394 26.8293L103.295 37.6401C103.295 40.7163 103.438 42.9906 103.724 44.4628C104.032 45.913 104.592 47.4731 105.405 49.1431H96.2421C96.0004 48.5278 95.7037 47.6159 95.3522 46.4074C95.1983 45.8581 95.0885 45.4955 95.0226 45.3197C93.4405 46.8578 91.7485 48.0114 89.9467 48.7805C88.1449 49.5496 86.2223 49.9341 84.1788 49.9341C80.5752 49.9341 77.7296 48.9563 75.6422 47.0007C73.5767 45.0451 72.5439 42.5731 72.5439 39.5847C72.5439 37.6071 73.0164 35.8493 73.9612 34.3112C74.9061 32.7511 76.2245 31.5645 77.9164 30.7515C79.6303 29.9165 82.0913 29.1914 85.2994 28.5761C89.6281 27.7631 92.6275 27.0051 94.2974 26.3019V25.379C94.2974 23.5992 93.858 22.3358 92.979 21.5887C92.1001 20.8196 90.4411 20.4351 88.0021 20.4351C86.3541 20.4351 85.0687 20.7647 84.1458 21.4239C83.2229 22.0611 82.4758 23.1927 81.9045 24.8187ZM94.2974 32.3336C93.1109 32.7291 91.2322 33.2015 88.6613 33.7508C86.0904 34.3002 84.4095 34.8385 83.6185 35.3659C82.4099 36.2228 81.8057 37.3105 81.8057 38.6289C81.8057 39.9253 82.2891 41.0459 83.2559 41.9908C84.2227 42.9356 85.4532 43.4081 86.9474 43.4081C88.6174 43.4081 90.2104 42.8587 91.7266 41.7601C92.8472 40.9251 93.5833 39.9033 93.9349 38.6948C94.1766 37.9038 94.2974 36.3986 94.2974 34.1793V32.3336Z" fill="#9AFF9A"/>
<path d="M57.5469 49.1431H48.2852V14.1398H56.8877V19.1167C58.3599 16.7656 59.6783 15.2164 60.8429 14.4694C62.0294 13.7223 63.3698 13.3487 64.864 13.3487C66.9734 13.3487 69.0059 13.931 70.9615 15.0956L68.094 23.1707C66.5339 22.16 65.0837 21.6546 63.7433 21.6546C62.4469 21.6546 61.3482 22.0171 60.4473 22.7423C59.5464 23.4454 58.8323 24.7308 58.3049 26.5986C57.7996 28.4663 57.5469 32.3775 57.5469 38.3322V49.1431Z" fill="#9AFF9A"/>
<path d="M0 0.823975H19.3145C23.1378 0.823975 25.9833 0.988774 27.8511 1.31837C29.7408 1.626 31.4217 2.28519 32.8939 3.29596C34.3881 4.30673 35.6296 5.65808 36.6184 7.35001C37.6072 9.01998 38.1016 10.8987 38.1016 12.9861C38.1016 15.2494 37.4863 17.3258 36.2558 19.2155C35.0473 21.1052 33.3993 22.5225 31.3119 23.4673C34.2563 24.3243 36.5195 25.7855 38.1016 27.851C39.6837 29.9165 40.4747 32.3445 40.4747 35.1351C40.4747 37.3324 39.9583 39.4748 38.9256 41.5623C37.9148 43.6278 36.5195 45.2867 34.7397 46.5392C32.9818 47.7697 30.8065 48.5278 28.2136 48.8134C26.5876 48.9892 22.6654 49.0991 16.447 49.143H0V0.823975ZM9.75611 8.86616V20.0395H16.1503C19.9517 20.0395 22.3138 19.9846 23.2367 19.8747C24.9067 19.677 26.2141 19.1057 27.1589 18.1608C28.1257 17.194 28.6091 15.9305 28.6091 14.3704C28.6091 12.8763 28.1917 11.6677 27.3567 10.7449C26.5437 9.80002 25.3241 9.22872 23.6981 9.03096C22.7313 8.9211 19.9517 8.86616 15.3593 8.86616H9.75611ZM9.75611 28.0817V41.002H18.7871C22.3028 41.002 24.5331 40.9031 25.478 40.7053C26.9282 40.4416 28.1038 39.8044 29.0047 38.7937C29.9275 37.7609 30.389 36.3876 30.389 34.6737C30.389 33.2234 30.0374 31.9929 29.3343 30.9822C28.6311 29.9714 27.6094 29.2353 26.269 28.7739C24.9506 28.3124 22.0721 28.0817 17.6335 28.0817H9.75611Z" fill="#9AFF9A"/>
</svg>
