<svg width="261" height="50" viewBox="0 0 261 50" fill="none" xmlns="http://www.w3.org/2000/svg">
<path d="M232.014 0H241.873L260.253 50H250.253L245.605 37.5352H228.141L223.563 50H213.563L232.014 0ZM243.845 30.7042L236.944 10.0704L229.761 30.7042H243.845Z" fill="#0066FF"/>
<path d="M187.701 50V17.1831L174.884 41.6197H169.462L156.645 17.1831V50H146.927V0H157.349L172.138 28.4507L187.067 0H197.419V50H187.701Z" fill="#0066FF"/>
<path d="M102.639 0H112.498L130.878 50H120.878L116.23 37.5352H98.7658L94.1884 50H84.1885L102.639 0ZM114.47 30.7042L107.569 10.0704L100.386 30.7042H114.47Z" fill="#0066FF"/>
<path d="M29.998 50V0H48.1669C53.6129 0 58.1669 1.12676 61.8288 3.38028C65.4907 5.58685 68.2372 8.59155 70.0682 12.3944C71.8992 16.1502 72.8146 20.3286 72.8146 24.9296C72.8146 30 71.8053 34.4131 69.7865 38.169C67.7677 41.9248 64.9039 44.8356 61.195 46.9014C57.5331 48.9671 53.1904 50 48.1669 50H29.998ZM63.026 24.9296C63.026 21.6901 62.4391 18.8497 61.2654 16.4084C60.0917 13.9202 58.4016 11.9953 56.195 10.6338C53.9885 9.22534 51.3124 8.52112 48.1669 8.52112H39.7163V41.4788H48.1669C51.3594 41.4788 54.0589 40.7746 56.2655 39.3662C58.472 37.9108 60.1387 35.9389 61.2654 33.4507C62.4391 30.9155 63.026 28.0751 63.026 24.9296Z" fill="#0066FF"/>
<rect width="16" height="12" rx="1" fill="#0066FF"/>
<rect y="38" width="16" height="12" rx="1" fill="#0066FF"/>
<rect x="48" y="22" width="5.99999" height="6" fill="#0066FF"/>
</svg>
