<svg width="675" height="50" viewBox="0 0 675 50" fill="none" xmlns="http://www.w3.org/2000/svg">
<path d="M0 0H16.4115V16.4115H32.8227V32.8227H49.2341V49.2342H0V0Z" fill="#0D7FF2"/>
<path d="M660.719 50C656.461 50 652.972 49.0782 650.25 47.2345C647.528 45.3908 645.882 42.757 645.312 39.333L652.95 37.3576C653.257 38.894 653.762 40.1012 654.464 40.9791C655.21 41.8571 656.11 42.4936 657.164 42.8887C658.261 43.2398 659.446 43.4154 660.719 43.4154C662.651 43.4154 664.078 43.0862 664.999 42.4277C665.921 41.7254 666.382 40.8694 666.382 39.8597C666.382 38.8501 665.943 38.0819 665.065 37.5551C664.187 36.9845 662.783 36.5236 660.851 36.1724L659.007 35.8431C656.725 35.4042 654.64 34.8116 652.752 34.0653C650.865 33.2752 649.35 32.1997 648.209 30.8389C647.067 29.478 646.497 27.7222 646.497 25.5712C646.497 22.3228 647.682 19.8426 650.052 18.1306C652.423 16.3747 655.54 15.4968 659.403 15.4968C663.046 15.4968 666.075 16.3089 668.489 17.9331C670.904 19.5573 672.484 21.6863 673.23 24.3201L665.526 26.6906C665.175 25.0225 664.451 23.8372 663.353 23.1349C662.3 22.4325 660.983 22.0814 659.403 22.0814C657.822 22.0814 656.615 22.3667 655.781 22.9374C654.947 23.4641 654.53 24.2104 654.53 25.1761C654.53 26.2296 654.969 27.0198 655.847 27.5466C656.725 28.0294 657.91 28.4026 659.403 28.6659L661.246 28.9952C663.704 29.4341 665.921 30.0268 667.897 30.773C669.916 31.4754 671.496 32.507 672.638 33.8678C673.823 35.1847 674.415 36.9845 674.415 39.2671C674.415 42.6911 673.164 45.3469 670.662 47.2345C668.204 49.0782 664.89 50 660.719 50Z" fill="white"/>
<path d="M609.877 49.0782V16.4187H618.042V20.6987H619.227C619.754 19.5573 620.742 18.4818 622.19 17.4722C623.639 16.4187 625.834 15.8919 628.775 15.8919C631.321 15.8919 633.538 16.4845 635.425 17.6697C637.357 18.8111 638.849 20.4133 639.903 22.4765C640.956 24.4958 641.483 26.8662 641.483 29.5879V49.0782H633.186V30.2463C633.186 27.7881 632.572 25.9444 631.343 24.7153C630.157 23.4861 628.446 22.8716 626.207 22.8716C623.661 22.8716 621.685 23.7276 620.281 25.4396C618.876 27.1077 618.174 29.4562 618.174 32.4851V49.0782H609.877Z" fill="white"/>
<path d="M588.387 50C585.139 50 582.22 49.3416 579.63 48.0246C577.04 46.7077 574.999 44.7982 573.506 42.296C572.014 39.7939 571.268 36.7869 571.268 33.2752V32.2216C571.268 28.7098 572.014 25.7029 573.506 23.2007C574.999 20.6986 577.04 18.7891 579.63 17.4721C582.22 16.1552 585.139 15.4968 588.387 15.4968C591.636 15.4968 594.555 16.1552 597.145 17.4721C599.735 18.7891 601.776 20.6986 603.269 23.2007C604.761 25.7029 605.507 28.7098 605.507 32.2216V33.2752C605.507 36.7869 604.761 39.7939 603.269 42.296C601.776 44.7982 599.735 46.7077 597.145 48.0246C594.555 49.3416 591.636 50 588.387 50ZM588.387 42.6253C590.934 42.6253 593.041 41.8132 594.709 40.189C596.377 38.5209 597.211 36.1504 597.211 33.0776V32.4192C597.211 29.3464 596.377 26.9978 594.709 25.3736C593.084 23.7056 590.977 22.8715 588.387 22.8715C585.841 22.8715 583.734 23.7056 582.066 25.3736C580.398 26.9978 579.564 29.3464 579.564 32.4192V33.0776C579.564 36.1504 580.398 38.5209 582.066 40.189C583.734 41.8132 585.841 42.6253 588.387 42.6253Z" fill="white"/>
<path d="M558.651 49.0782V16.4186H566.948V49.0782H558.651ZM562.799 12.5996C561.307 12.5996 560.034 12.1167 558.98 11.1509C557.971 10.1852 557.466 8.91218 557.466 7.33188C557.466 5.75158 557.971 4.47856 558.98 3.51282C560.034 2.54708 561.307 2.06421 562.799 2.06421C564.336 2.06421 565.609 2.54708 566.618 3.51282C567.628 4.47856 568.133 5.75158 568.133 7.33188C568.133 8.91218 567.628 10.1852 566.618 11.1509C565.609 12.1167 564.336 12.5996 562.799 12.5996Z" fill="white"/>
<path d="M544.424 49.0782C542.273 49.0782 540.517 48.4197 539.156 47.1028C537.839 45.742 537.18 43.9422 537.18 41.7035V23.2666H529.016V16.4186H537.18V6.27838H545.477V16.4186H554.432V23.2666H545.477V40.2549C545.477 41.5718 546.092 42.2302 547.321 42.2302H553.642V49.0782H544.424Z" fill="white"/>
<path d="M507.077 49.6048C504.531 49.6048 502.293 49.0342 500.361 47.8929C498.474 46.7076 497.003 45.0834 495.949 43.0203C494.896 40.9571 494.369 38.5866 494.369 35.9089V16.4185H502.666V35.2504C502.666 37.7087 503.258 39.5524 504.444 40.7815C505.673 42.0106 507.407 42.6252 509.645 42.6252C512.191 42.6252 514.167 41.7911 515.571 40.123C516.976 38.411 517.679 36.0406 517.679 33.0117V16.4185H525.975V49.0781H517.81V44.7981H516.625C516.098 45.8955 515.111 46.971 513.662 48.0245C512.213 49.0781 510.018 49.6048 507.077 49.6048Z" fill="white"/>
<path d="M480.434 49.0782V2.98605H488.73V49.0782H480.434Z" fill="white"/>
<path d="M458.948 50C455.7 50 452.78 49.3416 450.191 48.0246C447.601 46.7077 445.559 44.7982 444.067 42.296C442.574 39.7939 441.828 36.7869 441.828 33.2752V32.2216C441.828 28.7098 442.574 25.7029 444.067 23.2007C445.559 20.6986 447.601 18.7891 450.191 17.4721C452.78 16.1552 455.7 15.4968 458.948 15.4968C462.196 15.4968 465.116 16.1552 467.706 17.4721C470.295 18.7891 472.337 20.6986 473.829 23.2007C475.322 25.7029 476.068 28.7098 476.068 32.2216V33.2752C476.068 36.7869 475.322 39.7939 473.829 42.296C472.337 44.7982 470.295 46.7077 467.706 48.0246C465.116 49.3416 462.196 50 458.948 50ZM458.948 42.6253C461.494 42.6253 463.601 41.8132 465.269 40.189C466.937 38.5209 467.771 36.1504 467.771 33.0776V32.4192C467.771 29.3464 466.937 26.9978 465.269 25.3736C463.645 23.7056 461.538 22.8715 458.948 22.8715C456.402 22.8715 454.295 23.7056 452.627 25.3736C450.959 26.9978 450.125 29.3464 450.125 32.4192V33.0776C450.125 36.1504 450.959 38.5209 452.627 40.189C454.295 41.8132 456.402 42.6253 458.948 42.6253Z" fill="white"/>
<path d="M422.505 50C418.949 50 415.811 49.3635 413.089 48.0905C410.367 46.8175 408.238 44.9957 406.702 42.6253C405.166 40.2548 404.397 37.4015 404.397 34.0653V32.2216H412.957V34.0653C412.957 36.8308 413.813 38.916 415.525 40.3207C417.237 41.6815 419.564 42.3619 422.505 42.3619C425.49 42.3619 427.707 41.7693 429.155 40.5841C430.648 39.3988 431.394 37.8844 431.394 36.0407C431.394 34.7677 431.021 33.7361 430.275 32.9459C429.573 32.1558 428.519 31.5193 427.114 31.0364C425.753 30.5096 424.085 30.0268 422.11 29.5878L420.596 29.2586C417.435 28.5562 414.713 27.6783 412.431 26.6247C410.192 25.5273 408.458 24.1006 407.229 22.3447C406.044 20.5889 405.451 18.3062 405.451 15.4968C405.451 12.6873 406.109 10.2949 407.426 8.31957C408.787 6.3003 410.675 4.76389 413.089 3.71036C415.547 2.61293 418.423 2.06421 421.715 2.06421C425.007 2.06421 427.926 2.63487 430.472 3.7762C433.062 4.87363 435.082 6.54173 436.53 8.78049C438.023 10.9754 438.769 13.7409 438.769 17.0771V19.0524H430.209V17.0771C430.209 15.3212 429.858 13.9165 429.155 12.8629C428.497 11.7655 427.531 10.9754 426.258 10.4925C424.985 9.96571 423.471 9.70233 421.715 9.70233C419.081 9.70233 417.128 10.2071 415.855 11.2168C414.626 12.1825 414.011 13.5214 414.011 15.2334C414.011 16.3747 414.296 17.3405 414.867 18.1306C415.482 18.9208 416.381 19.5792 417.567 20.106C418.752 20.6327 420.266 21.0937 422.11 21.4887L423.624 21.818C426.917 22.5203 429.77 23.4202 432.184 24.5177C434.643 25.6151 436.552 27.0637 437.913 28.8635C439.274 30.6633 439.954 32.9679 439.954 35.7773C439.954 38.5867 439.23 41.0669 437.781 43.2179C436.377 45.325 434.357 46.993 431.723 48.2222C429.134 49.4074 426.061 50 422.505 50Z" fill="white"/>
<path d="M356.062 49.0782V2.98605H364.358V20.4352H365.543C365.894 19.7329 366.443 19.0305 367.189 18.3281C367.936 17.6258 368.923 17.0551 370.153 16.6162C371.426 16.1333 373.028 15.8918 374.959 15.8918C377.505 15.8918 379.722 16.4845 381.61 17.6697C383.541 18.811 385.034 20.4133 386.087 22.4764C387.141 24.4957 387.668 26.8662 387.668 29.5878V49.0782H379.371V30.2462C379.371 27.788 378.756 25.9443 377.527 24.7152C376.342 23.4861 374.63 22.8715 372.391 22.8715C369.845 22.8715 367.87 23.7275 366.465 25.4395C365.06 27.1076 364.358 29.4561 364.358 32.485V49.0782H356.062Z" fill="white"/>
<path d="M336.111 50C332.95 50 330.075 49.3416 327.485 48.0246C324.939 46.7077 322.92 44.7982 321.427 42.296C319.935 39.7939 319.188 36.765 319.188 33.2093V32.2875C319.188 28.7318 319.935 25.7029 321.427 23.2007C322.92 20.6986 324.939 18.7891 327.485 17.4721C330.075 16.1552 332.95 15.4968 336.111 15.4968C339.228 15.4968 341.905 16.0455 344.144 17.1429C346.383 18.2403 348.183 19.7548 349.543 21.6863C350.948 23.5739 351.87 25.7248 352.309 28.1392L344.276 29.8512C344.1 28.5343 343.705 27.349 343.091 26.2955C342.476 25.242 341.598 24.4079 340.457 23.7933C339.359 23.1788 337.977 22.8715 336.308 22.8715C334.64 22.8715 333.126 23.2446 331.765 23.9909C330.448 24.6932 329.395 25.7687 328.604 27.2173C327.858 28.622 327.485 30.356 327.485 32.4192V33.0776C327.485 35.1408 327.858 36.8967 328.604 38.3453C329.395 39.75 330.448 40.8255 331.765 41.5717C333.126 42.2741 334.64 42.6253 336.308 42.6253C338.811 42.6253 340.698 41.9888 341.971 40.7157C343.288 39.3988 344.122 37.6868 344.473 35.5798L352.506 37.4893C351.936 39.8158 350.948 41.9449 349.543 43.8763C348.183 45.7639 346.383 47.2564 344.144 48.3539C341.905 49.4513 339.228 50 336.111 50Z" fill="white"/>
<path d="M300.939 50C297.691 50 294.815 49.3196 292.313 47.9588C289.855 46.5541 287.923 44.6006 286.519 42.0985C285.158 39.5525 284.478 36.5674 284.478 33.1435V32.3533C284.478 28.9293 285.158 25.9663 286.519 23.4641C287.88 20.9181 289.789 18.9646 292.247 17.6038C294.706 16.1991 297.559 15.4968 300.807 15.4968C304.012 15.4968 306.799 16.2211 309.17 17.6697C311.54 19.0744 313.384 21.0498 314.701 23.5958C316.018 26.098 316.676 29.0171 316.676 32.3533V35.1847H292.906C292.994 37.4234 293.828 39.2452 295.408 40.6499C296.988 42.0546 298.92 42.757 301.202 42.757C303.529 42.757 305.241 42.2521 306.338 41.2425C307.436 40.2329 308.27 39.1135 308.841 37.8844L315.623 41.44C315.008 42.5814 314.108 43.8324 312.923 45.1933C311.782 46.5102 310.245 47.6515 308.314 48.6172C306.382 49.5391 303.924 50 300.939 50ZM292.972 28.9952H308.248C308.072 27.1076 307.304 25.5931 305.943 24.4518C304.626 23.3105 302.892 22.7398 300.741 22.7398C298.503 22.7398 296.725 23.3105 295.408 24.4518C294.091 25.5931 293.279 27.1076 292.972 28.9952Z" fill="white"/>
<path d="M272.99 49.0782C270.839 49.0782 269.083 48.4197 267.722 47.1028C266.405 45.742 265.747 43.9422 265.747 41.7035V23.2666H257.582V16.4186H265.747V6.27838H274.043V16.4186H282.999V23.2666H274.043V40.2549C274.043 41.5718 274.658 42.2302 275.887 42.2302H282.208V49.0782H272.99Z" fill="white"/>
<path d="M238.225 50C235.898 50 233.813 49.6049 231.97 48.8148C230.126 47.9807 228.655 46.7955 227.558 45.2591C226.504 43.6788 225.978 41.7693 225.978 39.5305C225.978 37.2918 226.504 35.4261 227.558 33.9336C228.655 32.3972 230.148 31.2559 232.035 30.5096C233.967 29.7195 236.162 29.3244 238.62 29.3244H247.575V27.4807C247.575 25.9443 247.092 24.6932 246.126 23.7275C245.161 22.7179 243.624 22.213 241.517 22.213C239.454 22.213 237.918 22.6959 236.908 23.6617C235.898 24.5835 235.24 25.7907 234.933 27.2832L227.294 24.7152C227.821 23.0471 228.655 21.5326 229.797 20.1718C230.982 18.7671 232.54 17.6477 234.472 16.8137C236.447 15.9357 238.839 15.4968 241.649 15.4968C245.951 15.4968 249.353 16.5722 251.855 18.7232C254.357 20.8742 255.608 23.9909 255.608 28.0733V40.2548C255.608 41.5717 256.223 42.2302 257.452 42.2302H260.086V49.0782H254.555C252.93 49.0782 251.592 48.6831 250.538 47.8929C249.485 47.1028 248.958 46.0493 248.958 44.7323V44.6665H247.707C247.531 45.1933 247.136 45.8956 246.521 46.7736C245.907 47.6076 244.941 48.3539 243.624 49.0123C242.307 49.6708 240.508 50 238.225 50ZM239.673 43.2837C242 43.2837 243.888 42.6472 245.336 41.3742C246.829 40.0573 247.575 38.3233 247.575 36.1724V35.5139H239.213C237.676 35.5139 236.469 35.8431 235.591 36.5016C234.713 37.1601 234.274 38.0819 234.274 39.2671C234.274 40.4524 234.735 41.4181 235.657 42.1643C236.579 42.9106 237.918 43.2837 239.673 43.2837Z" fill="white"/>
<path d="M202.922 49.0781L192.519 16.4185H201.342L208.914 43.0203H210.099L217.672 16.4185H226.495L216.091 49.0781H202.922Z" fill="white"/>
<path d="M175.552 50C172.303 50 169.384 49.3416 166.794 48.0246C164.204 46.7077 162.163 44.7982 160.67 42.296C159.178 39.7939 158.432 36.7869 158.432 33.2752V32.2216C158.432 28.7098 159.178 25.7029 160.67 23.2007C162.163 20.6986 164.204 18.7891 166.794 17.4721C169.384 16.1552 172.303 15.4968 175.552 15.4968C178.8 15.4968 181.719 16.1552 184.309 17.4721C186.899 18.7891 188.94 20.6986 190.433 23.2007C191.925 25.7029 192.671 28.7098 192.671 32.2216V33.2752C192.671 36.7869 191.925 39.7939 190.433 42.296C188.94 44.7982 186.899 46.7077 184.309 48.0246C181.719 49.3416 178.8 50 175.552 50ZM175.552 42.6253C178.098 42.6253 180.205 41.8132 181.873 40.189C183.541 38.5209 184.375 36.1504 184.375 33.0776V32.4192C184.375 29.3464 183.541 26.9978 181.873 25.3736C180.249 23.7056 178.141 22.8715 175.552 22.8715C173.006 22.8715 170.898 23.7056 169.23 25.3736C167.562 26.9978 166.728 29.3464 166.728 32.4192V33.0776C166.728 36.1504 167.562 38.5209 169.23 40.189C170.898 41.8132 173.006 42.6253 175.552 42.6253Z" fill="white"/>
<path d="M122.732 49.0782V16.4187H130.897V20.6987H132.083C132.609 19.5573 133.597 18.4818 135.046 17.4722C136.494 16.4187 138.689 15.8919 141.63 15.8919C144.176 15.8919 146.393 16.4845 148.281 17.6697C150.212 18.8111 151.705 20.4133 152.758 22.4765C153.812 24.4958 154.338 26.8662 154.338 29.5879V49.0782H146.042V30.2463C146.042 27.7881 145.427 25.9444 144.198 24.7153C143.013 23.4861 141.301 22.8716 139.062 22.8716C136.516 22.8716 134.541 23.7276 133.136 25.4396C131.731 27.1077 131.029 29.4562 131.029 32.4851V49.0782H122.732Z" fill="white"/>
<path d="M85.4492 49.0782V16.4187H93.6141V20.6987H94.7993C95.3261 19.5573 96.3138 18.4818 97.7624 17.4722C99.211 16.4187 101.406 15.8919 104.347 15.8919C106.893 15.8919 109.11 16.4845 110.997 17.6697C112.929 18.8111 114.421 20.4133 115.475 22.4765C116.528 24.4958 117.055 26.8662 117.055 29.5879V49.0782H108.759V30.2463C108.759 27.7881 108.144 25.9444 106.915 24.7153C105.73 23.4861 104.018 22.8716 101.779 22.8716C99.233 22.8716 97.2576 23.7276 95.8529 25.4396C94.4482 27.1077 93.7458 29.4562 93.7458 32.4851V49.0782H85.4492Z" fill="white"/>
<path d="M71.1162 49.0782V2.98605H79.8079V49.0782H71.1162Z" fill="white"/>
</svg>
