<svg width="214" height="50" viewBox="0 0 214 50" fill="none" xmlns="http://www.w3.org/2000/svg">
<path d="M201.197 15.2712C201.038 13.5268 200.332 12.1709 199.08 11.2036C197.843 10.2204 196.074 9.72883 193.775 9.72883C192.253 9.72883 190.984 9.92705 189.969 10.3235C188.954 10.72 188.193 11.267 187.686 11.9648C187.178 12.6467 186.916 13.4317 186.901 14.3197C186.869 15.0492 187.012 15.6914 187.329 16.2464C187.662 16.8015 188.138 17.2931 188.756 17.7212C189.39 18.1335 190.151 18.4983 191.04 18.8154C191.928 19.1326 192.927 19.4101 194.037 19.648L198.223 20.5994C200.634 21.1227 202.759 21.8205 204.598 22.6927C206.453 23.5649 208.008 24.6036 209.26 25.8088C210.529 27.014 211.488 28.4015 212.139 29.9715C212.789 31.5414 213.122 33.3016 213.138 35.2521C213.122 38.3286 212.345 40.9689 210.806 43.1732C209.268 45.3774 207.056 47.0663 204.17 48.2398C201.3 49.4133 197.835 50 193.775 50C189.7 50 186.147 49.3895 183.118 48.1684C180.09 46.9474 177.735 45.092 176.054 42.6023C174.373 40.1126 173.509 36.9648 173.461 33.1589H184.736C184.831 34.7288 185.251 36.0371 185.997 37.0837C186.742 38.1304 187.765 38.9232 189.065 39.4624C190.381 40.0016 191.904 40.2712 193.632 40.2712C195.218 40.2712 196.566 40.0571 197.676 39.6289C198.802 39.2008 199.666 38.6061 200.269 37.8449C200.871 37.0837 201.181 36.2115 201.197 35.2284C201.181 34.3086 200.895 33.5236 200.34 32.8735C199.785 32.2074 198.929 31.6365 197.771 31.1608C196.629 30.6692 195.171 30.2173 193.394 29.8049L188.304 28.6156C184.086 27.6483 180.764 26.0863 178.337 23.9296C175.911 21.7571 174.706 18.8233 174.722 15.1285C174.706 12.1154 175.515 9.4751 177.148 7.20742C178.781 4.93974 181.041 3.17158 183.927 1.90295C186.813 0.634317 190.104 0 193.799 0C197.573 0 200.848 0.642245 203.623 1.92674C206.414 3.19537 208.578 4.97939 210.117 7.27878C211.655 9.57818 212.44 12.2423 212.472 15.2712H201.197Z" fill="url(#paint0_linear_379_26)"/>
<path d="M159.085 0.665985H170.836V32.0884C170.836 35.7199 169.972 38.8836 168.243 41.5794C166.515 44.2594 164.104 46.3368 161.012 47.8116C157.92 49.2705 154.328 50 150.237 50C146.098 50 142.482 49.2705 139.39 47.8116C136.297 46.3368 133.895 44.2594 132.182 41.5794C130.47 38.8836 129.613 35.7199 129.613 32.0884V0.665985H141.388V31.0656C141.388 32.7465 141.753 34.2451 142.482 35.5613C143.227 36.8775 144.266 37.9083 145.598 38.6536C146.93 39.3989 148.476 39.7716 150.237 39.7716C151.997 39.7716 153.535 39.3989 154.851 38.6536C156.183 37.9083 157.222 36.8775 157.967 35.5613C158.713 34.2451 159.085 32.7465 159.085 31.0656V0.665985Z" fill="url(#paint1_linear_379_26)"/>
<path d="M95.4242 0.665985L104.321 16.0561H104.701L113.693 0.665985H126.871L112.17 25.0237L127.346 49.3815H113.835L104.701 33.8249H104.321L95.1864 49.3815H81.7705L96.8752 25.0237L82.1511 0.665985H95.4242Z" fill="url(#paint2_linear_379_26)"/>
<path d="M45.5156 49.3815V0.665985H79.4834V10.2283H57.2902V20.2188H77.747V29.8049H57.2902V39.8192H79.4834V49.3815H45.5156Z" fill="url(#paint3_linear_379_26)"/>
<path d="M41.4607 0.665985V49.3815H31.4702L12.0838 21.2654H11.7746V49.3815H0V0.665985H10.1333L29.3055 28.7345H29.7099V0.665985H41.4607Z" fill="url(#paint4_linear_379_26)"/>
<defs>
<linearGradient id="paint0_linear_379_26" x1="31.0919" y1="-49.4057" x2="181.217" y2="101.523" gradientUnits="userSpaceOnUse">
<stop stop-color="white"/>
<stop offset="1" stop-color="#4169E1"/>
</linearGradient>
<linearGradient id="paint1_linear_379_26" x1="31.0943" y1="-49.4057" x2="181.22" y2="101.523" gradientUnits="userSpaceOnUse">
<stop stop-color="white"/>
<stop offset="1" stop-color="#4169E1"/>
</linearGradient>
<linearGradient id="paint2_linear_379_26" x1="31.0918" y1="-49.4057" x2="181.217" y2="101.523" gradientUnits="userSpaceOnUse">
<stop stop-color="white"/>
<stop offset="1" stop-color="#4169E1"/>
</linearGradient>
<linearGradient id="paint3_linear_379_26" x1="31.0927" y1="-49.4057" x2="181.218" y2="101.523" gradientUnits="userSpaceOnUse">
<stop stop-color="white"/>
<stop offset="1" stop-color="#4169E1"/>
</linearGradient>
<linearGradient id="paint4_linear_379_26" x1="31.0924" y1="-49.4057" x2="181.218" y2="101.523" gradientUnits="userSpaceOnUse">
<stop stop-color="white"/>
<stop offset="1" stop-color="#4169E1"/>
</linearGradient>
</defs>
</svg>
