<svg width="299" height="50" viewBox="0 0 299 50" fill="none" xmlns="http://www.w3.org/2000/svg">
<path d="M286.363 39.2365C284.207 39.2365 282.298 38.7593 280.636 37.8049C279.01 36.8152 277.738 35.4896 276.819 33.8283V50H269.714V10.9227H275.917V15.6947C276.978 14.0687 278.321 12.7961 279.947 11.8771C281.573 10.9227 283.429 10.4455 285.514 10.4455C287.388 10.4455 289.102 10.8166 290.658 11.5589C292.248 12.3012 293.627 13.344 294.793 14.6872C295.96 15.9951 296.861 17.5151 297.497 19.2472C298.169 20.9439 298.505 22.782 298.505 24.7615C298.505 27.4479 297.975 29.8869 296.914 32.0785C295.889 34.2701 294.458 36.0198 292.619 37.3277C290.817 38.6002 288.731 39.2365 286.363 39.2365ZM283.977 33.192C285.073 33.192 286.062 32.9622 286.946 32.5027C287.83 32.0432 288.59 31.4246 289.226 30.6469C289.898 29.8339 290.392 28.9325 290.711 27.9428C291.064 26.9177 291.241 25.8572 291.241 24.7615C291.241 23.595 291.046 22.5168 290.658 21.5271C290.304 20.5374 289.774 19.6713 289.067 18.929C288.36 18.1514 287.529 17.5504 286.575 17.1263C285.656 16.7021 284.648 16.49 283.553 16.49C282.881 16.49 282.192 16.6137 281.485 16.8612C280.813 17.0732 280.159 17.3914 279.523 17.8156C278.887 18.2397 278.321 18.7346 277.826 19.3002C277.367 19.8657 277.031 20.4843 276.819 21.1559V27.6777C277.243 28.7028 277.809 29.6395 278.516 30.4878C279.258 31.3362 280.106 32.0078 281.061 32.5027C282.015 32.9622 282.987 33.192 283.977 33.192Z" fill="white"/>
<path d="M250.39 39.2365C248.127 39.2365 246.095 38.8653 244.292 38.123C242.489 37.3454 240.952 36.2849 239.679 34.9417C238.442 33.5985 237.488 32.0608 236.816 30.3288C236.144 28.5967 235.809 26.7763 235.809 24.8675C235.809 22.9233 236.144 21.0853 236.816 19.3532C237.488 17.6211 238.442 16.0835 239.679 14.7403C240.952 13.397 242.489 12.3543 244.292 11.612C246.095 10.8343 248.127 10.4455 250.39 10.4455C252.652 10.4455 254.667 10.8343 256.434 11.612C258.237 12.3543 259.775 13.397 261.047 14.7403C262.32 16.0835 263.274 17.6211 263.91 19.3532C264.582 21.0853 264.918 22.9233 264.918 24.8675C264.918 26.7763 264.582 28.5967 263.91 30.3288C263.274 32.0608 262.32 33.5985 261.047 34.9417C259.81 36.2849 258.29 37.3454 256.487 38.123C254.684 38.8653 252.652 39.2365 250.39 39.2365ZM243.126 24.8675C243.126 26.4935 243.444 27.9428 244.08 29.2153C244.716 30.4525 245.582 31.4246 246.678 32.1315C247.774 32.8385 249.011 33.192 250.39 33.192C251.733 33.192 252.952 32.8385 254.048 32.1315C255.144 31.3892 256.01 30.3995 256.646 29.1623C257.318 27.8898 257.654 26.4405 257.654 24.8145C257.654 23.2238 257.318 21.7922 256.646 20.5197C256.01 19.2472 255.144 18.2574 254.048 17.5504C252.952 16.8435 251.733 16.49 250.39 16.49C249.011 16.49 247.774 16.8611 246.678 17.6035C245.582 18.3104 244.716 19.3002 244.08 20.5727C243.444 21.8099 243.126 23.2415 243.126 24.8675Z" fill="white"/>
<path d="M231.381 38.7062H224.276V23.1177C224.276 20.9614 223.852 19.3531 223.004 18.2926C222.191 17.2322 221.06 16.702 219.61 16.702C218.762 16.702 217.861 16.9494 216.906 17.4443C215.952 17.9392 215.086 18.6285 214.308 19.5122C213.566 20.3605 213.018 21.3503 212.665 22.4814V38.7062H205.56V0H212.665V16.0657C213.69 14.2983 215.086 12.9197 216.853 11.93C218.621 10.9402 220.547 10.4454 222.633 10.4454C224.435 10.4454 225.902 10.7635 227.034 11.3998C228.165 12.0007 229.048 12.8314 229.685 13.8918C230.321 14.9169 230.763 16.0834 231.01 17.3913C231.258 18.6638 231.381 19.9894 231.381 21.3679V38.7062Z" fill="white"/>
<path d="M189.593 39.2365C187.225 39.2365 184.963 38.8476 182.807 38.07C180.65 37.2923 178.795 36.1435 177.239 34.6235L179.784 30.0106C181.446 31.3538 183.072 32.3436 184.662 32.9798C186.288 33.6161 187.844 33.9342 189.328 33.9342C190.707 33.9342 191.803 33.6868 192.616 33.1919C193.464 32.697 193.888 31.9547 193.888 30.965C193.888 30.2934 193.658 29.7808 193.199 29.4273C192.739 29.0385 192.068 28.7027 191.184 28.4199C190.336 28.1371 189.293 27.819 188.056 27.4655C186.006 26.7939 184.291 26.14 182.913 25.5037C181.534 24.8674 180.491 24.0721 179.784 23.1177C179.113 22.128 178.777 20.8731 178.777 19.3531C178.777 17.515 179.236 15.942 180.155 14.6342C181.11 13.2909 182.418 12.2482 184.079 11.5059C185.776 10.7635 187.755 10.3924 190.018 10.3924C191.997 10.3924 193.871 10.7105 195.638 11.3468C197.405 11.9477 199.014 12.9375 200.463 14.316L197.6 18.8229C196.186 17.7271 194.843 16.9318 193.57 16.4369C192.298 15.9067 191.007 15.6416 189.699 15.6416C188.957 15.6416 188.25 15.73 187.579 15.9067C186.942 16.0834 186.412 16.3839 185.988 16.8081C185.599 17.1969 185.405 17.7625 185.405 18.5048C185.405 19.1764 185.581 19.7066 185.935 20.0954C186.324 20.4489 186.889 20.7671 187.632 21.0499C188.409 21.3326 189.346 21.6508 190.442 22.0042C192.669 22.6405 194.542 23.2944 196.062 23.9661C197.617 24.6377 198.784 25.4684 199.562 26.4581C200.339 27.4125 200.728 28.7381 200.728 30.4348C200.728 33.1919 199.721 35.3482 197.706 36.9035C195.691 38.4588 192.987 39.2365 189.593 39.2365Z" fill="white"/>
<path d="M161.555 39.2364C159.434 39.2364 157.542 38.7592 155.881 37.8048C154.22 36.8504 152.912 35.5425 151.957 33.8812V38.7062H145.754V0H152.859V15.8006C153.849 14.1392 155.139 12.8314 156.729 11.877C158.356 10.9226 160.247 10.4454 162.403 10.4454C164.206 10.4454 165.849 10.8342 167.334 11.6118C168.819 12.3542 170.091 13.3969 171.152 14.7402C172.247 16.0834 173.078 17.621 173.644 19.3531C174.244 21.0851 174.545 22.9409 174.545 24.9204C174.545 26.8999 174.209 28.7557 173.538 30.4877C172.901 32.2198 172 33.7574 170.833 35.1007C169.667 36.4086 168.288 37.4336 166.698 38.176C165.142 38.8829 163.428 39.2364 161.555 39.2364ZM159.593 33.1919C160.724 33.1919 161.749 32.9798 162.668 32.5556C163.622 32.0961 164.435 31.4952 165.107 30.7529C165.814 30.0105 166.344 29.1445 166.698 28.1548C167.086 27.1297 167.281 26.0692 167.281 24.9734C167.281 23.4535 166.963 22.0572 166.326 20.7847C165.726 19.4768 164.877 18.434 163.781 17.6564C162.721 16.8787 161.466 16.4899 160.017 16.4899C158.992 16.4899 158.002 16.7373 157.048 17.2322C156.129 17.6917 155.298 18.328 154.556 19.141C153.849 19.954 153.283 20.8731 152.859 21.8982V28.5259C153.071 29.2329 153.407 29.8692 153.866 30.4347C154.361 31.0003 154.927 31.4952 155.563 31.9193C156.199 32.3082 156.853 32.6263 157.525 32.8737C158.232 33.0858 158.921 33.1919 159.593 33.1919Z" fill="white"/>
<path d="M113.398 30.4878C113.398 28.6851 113.893 27.1121 114.883 25.7689C115.908 24.3903 117.322 23.3299 119.125 22.5875C120.928 21.8452 122.995 21.4741 125.328 21.4741C126.495 21.4741 127.679 21.5624 128.881 21.7392C130.083 21.9159 131.126 22.1987 132.009 22.5875V21.1029C132.009 19.3355 131.479 17.9746 130.419 17.0202C129.393 16.0658 127.856 15.5886 125.806 15.5886C124.286 15.5886 122.836 15.8537 121.458 16.384C120.079 16.9142 118.63 17.6918 117.11 18.7169L114.83 14.051C116.668 12.8491 118.542 11.9478 120.45 11.3468C122.395 10.7459 124.427 10.4455 126.548 10.4455C130.507 10.4455 133.582 11.4352 135.774 13.4147C138.001 15.3942 139.114 18.222 139.114 21.8983V30.753C139.114 31.4953 139.238 32.0255 139.485 32.3436C139.768 32.6618 140.21 32.8562 140.811 32.9269V38.7063C140.175 38.8123 139.591 38.9007 139.061 38.9714C138.566 39.0421 138.142 39.0774 137.789 39.0774C136.375 39.0774 135.297 38.7593 134.554 38.123C133.847 37.4868 133.405 36.7091 133.229 35.7901L133.07 34.3585C131.868 35.9138 130.366 37.1156 128.563 37.964C126.76 38.8123 124.922 39.2365 123.048 39.2365C121.21 39.2365 119.549 38.8653 118.064 38.123C116.615 37.3454 115.466 36.3026 114.618 34.9947C113.805 33.6515 113.398 32.1492 113.398 30.4878ZM130.684 31.9194C131.072 31.4953 131.391 31.0711 131.638 30.6469C131.885 30.2227 132.009 29.8339 132.009 29.4804V26.6703C131.161 26.3168 130.242 26.0517 129.252 25.8749C128.262 25.6628 127.326 25.5568 126.442 25.5568C124.604 25.5568 123.084 25.9633 121.882 26.7763C120.715 27.554 120.132 28.5967 120.132 29.9046C120.132 30.6116 120.327 31.2832 120.715 31.9194C121.104 32.5557 121.67 33.0683 122.412 33.4571C123.155 33.8459 124.038 34.0403 125.063 34.0403C126.124 34.0403 127.167 33.8459 128.192 33.4571C129.217 33.0329 130.047 32.5204 130.684 31.9194Z" fill="white"/>
<path d="M111.502 17.0732C109.346 17.0732 107.419 17.4974 105.722 18.3457C104.026 19.1587 102.806 20.3429 102.064 21.8982V38.7063H94.959V10.9226H101.481V16.8611C102.47 14.9523 103.725 13.45 105.245 12.3542C106.765 11.2584 108.374 10.6575 110.07 10.5515C110.459 10.5515 110.76 10.5515 110.972 10.5515C111.184 10.5515 111.361 10.5692 111.502 10.6045V17.0732Z" fill="white"/>
<path d="M62.6035 30.4878C62.6035 28.6851 63.0984 27.1121 64.0881 25.7689C65.1132 24.3903 66.5271 23.3299 68.3299 22.5875C70.1327 21.8452 72.2005 21.4741 74.5335 21.4741C75.7 21.4741 76.8841 21.5624 78.086 21.7392C79.2878 21.9159 80.3306 22.1987 81.2143 22.5875V21.1029C81.2143 19.3355 80.6841 17.9746 79.6236 17.0202C78.5985 16.0658 77.0609 15.5886 75.0107 15.5886C73.4907 15.5886 72.0415 15.8537 70.6629 16.384C69.2843 16.9142 67.835 17.6918 66.3151 18.7169L64.0351 14.051C65.8732 12.8491 67.7467 11.9478 69.6555 11.3468C71.5996 10.7459 73.6321 10.4455 75.753 10.4455C79.712 10.4455 82.7873 11.4352 84.9789 13.4147C87.2058 15.3942 88.3193 18.222 88.3193 21.8983V30.753C88.3193 31.4953 88.443 32.0255 88.6904 32.3436C88.9732 32.6618 89.415 32.8562 90.016 32.9269V38.7063C89.3797 38.8123 88.7965 38.9007 88.2662 38.9714C87.7714 39.0421 87.3472 39.0774 86.9937 39.0774C85.5798 39.0774 84.5017 38.7593 83.7593 38.123C83.0524 37.4868 82.6105 36.7091 82.4338 35.7901L82.2747 34.3585C81.0729 35.9138 79.5706 37.1156 77.7678 37.964C75.9651 38.8123 74.127 39.2365 72.2535 39.2365C70.4154 39.2365 68.7541 38.8653 67.2695 38.123C65.8202 37.3454 64.6714 36.3026 63.823 34.9947C63.01 33.6515 62.6035 32.1492 62.6035 30.4878ZM79.8887 31.9194C80.2776 31.4953 80.5957 31.0711 80.8431 30.6469C81.0906 30.2227 81.2143 29.8339 81.2143 29.4804V26.6703C80.3659 26.3168 79.4469 26.0517 78.4571 25.8749C77.4674 25.6628 76.5307 25.5568 75.647 25.5568C73.8089 25.5568 72.2889 25.9633 71.0871 26.7763C69.9206 27.554 69.3373 28.5967 69.3373 29.9046C69.3373 30.6116 69.5317 31.2832 69.9206 31.9194C70.3094 32.5557 70.875 33.0683 71.6173 33.4571C72.3596 33.8459 73.2433 34.0403 74.2684 34.0403C75.3288 34.0403 76.3716 33.8459 77.3967 33.4571C78.4218 33.0329 79.2525 32.5204 79.8887 31.9194Z" fill="white"/>
<path d="M47.5201 39.2365C45.2579 39.2365 43.2253 38.8653 41.4226 38.123C39.6198 37.3454 38.0822 36.2849 36.8097 34.9417C35.5371 33.5631 34.5474 32.0078 33.8404 30.2758C33.1688 28.5437 32.833 26.7233 32.833 24.8145C32.833 22.1987 33.4163 19.8127 34.5827 17.6565C35.7846 15.4649 37.4813 13.7152 39.6729 12.4073C41.8644 11.0994 44.4625 10.4455 47.4671 10.4455C50.4717 10.4455 53.0521 11.0994 55.2084 12.4073C57.3646 13.7152 58.9729 15.4296 60.0334 17.5504L53.0875 19.6713C52.4866 18.6462 51.6912 17.8686 50.7015 17.3383C49.7117 16.7728 48.6159 16.49 47.4141 16.49C46.0709 16.49 44.8337 16.8435 43.7025 17.5504C42.6068 18.2221 41.7407 19.1941 41.1045 20.4667C40.4682 21.7038 40.1501 23.1531 40.1501 24.8145C40.1501 26.4405 40.4682 27.8898 41.1045 29.1623C41.7761 30.3995 42.6598 31.3892 43.7556 32.1315C44.8514 32.8385 46.0709 33.192 47.4141 33.192C48.2625 33.192 49.0578 33.0506 49.8001 32.7678C50.5778 32.485 51.267 32.0962 51.868 31.6013C52.4689 31.1064 52.9107 30.5409 53.1935 29.9046L60.1394 32.0255C59.5031 33.4041 58.5664 34.6413 57.3292 35.737C56.1274 36.8328 54.6958 37.6989 53.0344 38.3351C51.4084 38.936 49.5703 39.2365 47.5201 39.2365Z" fill="white"/>
<path d="M25.1855 10.9226C24.9381 10.6752 24.4786 10.3393 23.8069 9.91516C23.1707 9.49098 22.3753 9.08448 21.4209 8.69565C20.5019 8.30682 19.4945 7.97102 18.3987 7.68823C17.3029 7.3701 16.1894 7.21103 15.0583 7.21103C13.0788 7.21103 11.5765 7.58218 10.5514 8.3245C9.56166 9.06681 9.06679 10.1096 9.06679 11.4528C9.06679 12.4779 9.38492 13.2909 10.0212 13.8918C10.6575 14.4927 11.6119 15.0053 12.8844 15.4295C14.1569 15.8536 15.7476 16.3132 17.6564 16.808C20.1307 17.409 22.2693 18.1513 24.0721 19.035C25.9102 19.8833 27.3064 21.0145 28.2608 22.4284C29.2505 23.807 29.7454 25.6451 29.7454 27.9427C29.7454 29.9575 29.3743 31.6896 28.632 33.1389C27.8897 34.5528 26.8646 35.7016 25.5567 36.5853C24.2488 37.469 22.7642 38.123 21.1028 38.5471C19.4415 38.936 17.674 39.1304 15.8006 39.1304C13.9272 39.1304 12.0537 38.936 10.1803 38.5471C8.3068 38.1583 6.50405 37.6104 4.77199 36.9034C3.03994 36.1611 1.44927 35.2774 0 34.2523L3.23435 27.9427C3.55248 28.2608 4.11805 28.685 4.93106 29.2152C5.74407 29.7101 6.73381 30.2227 7.9003 30.7529C9.06679 31.2477 10.3393 31.6719 11.7179 32.0254C13.0965 32.3789 14.4927 32.5556 15.9066 32.5556C17.8861 32.5556 19.3884 32.2198 20.4135 31.5482C21.4386 30.8766 21.9512 29.9222 21.9512 28.685C21.9512 27.5539 21.5447 26.6702 20.7317 26.0339C19.9187 25.3976 18.7875 24.8497 17.3382 24.3902C15.889 23.8953 14.1746 23.3651 12.1951 22.7995C9.82677 22.1279 7.84728 21.3856 6.25661 20.5726C4.66595 19.7243 3.48179 18.6638 2.70413 17.3913C1.92647 16.1188 1.53764 14.5281 1.53764 12.6193C1.53764 10.0389 2.13856 7.88265 3.34039 6.15059C4.57758 4.38318 6.23894 3.05763 8.32448 2.17393C10.41 1.25487 12.7253 0.795349 15.2704 0.795349C17.0378 0.795349 18.6991 0.989764 20.2545 1.37859C21.8451 1.76742 23.3297 2.27997 24.7083 2.91624C26.0869 3.55251 27.3241 4.24179 28.4199 4.9841L25.1855 10.9226Z" fill="white"/>
</svg>
