<svg width="300" height="50" viewBox="0 0 300 50" fill="none" xmlns="http://www.w3.org/2000/svg">
<path d="M97.5332 11.5927C95.8483 10.508 94.1855 9.64929 92.545 9.01655C90.9044 8.38381 89.3525 7.93186 87.8893 7.66068C86.4261 7.38951 85.0959 7.25392 83.8987 7.25392C81.5931 7.25392 79.753 7.70588 78.3785 8.60979C77.0039 9.51371 76.3167 10.8244 76.3167 12.5418C76.3167 14.0785 76.7601 15.344 77.6469 16.3383C78.578 17.2874 79.7752 18.0783 81.2384 18.711C82.7459 19.2986 84.3865 19.8635 86.1601 20.4059C87.978 20.9482 89.7737 21.5584 91.5473 22.2363C93.3209 22.8691 94.9615 23.7052 96.469 24.7447C97.9766 25.7842 99.1737 27.1175 100.061 28.7445C100.947 30.3264 101.391 32.3376 101.391 34.7781C101.391 37.5803 100.637 40.0208 99.1294 42.0999C97.6218 44.1337 95.5379 45.7155 92.8775 46.8454C90.2615 47.9753 87.2464 48.5402 83.8322 48.5402C81.3936 48.5402 79.0214 48.2239 76.7157 47.5911C74.4101 46.9132 72.2374 46.0093 70.1978 44.8794C68.2025 43.7495 66.4068 42.4388 64.8105 40.9474L68.2025 34.3714C69.7988 35.8628 71.4837 37.1283 73.2572 38.1678C75.0752 39.2073 76.8931 39.9983 78.711 40.5406C80.5733 41.0829 82.3247 41.3541 83.9652 41.3541C86.7143 41.3541 88.8426 40.8118 90.3502 39.7271C91.902 38.6424 92.678 37.1283 92.678 35.1849C92.678 33.6031 92.2124 32.3376 91.2813 31.3885C90.3945 30.3942 89.1973 29.5806 87.6898 28.9479C86.2266 28.3151 84.586 27.7502 82.7681 27.253C80.9945 26.7559 79.1987 26.1909 77.3808 25.5582C75.6072 24.8803 73.9667 24.0441 72.4591 23.0498C70.9959 22.0555 69.7988 20.7675 68.8676 19.1856C67.9808 17.6038 67.5374 15.5925 67.5374 13.152C67.5374 10.4854 68.2469 8.18043 69.6657 6.23702C71.0846 4.2484 73.0577 2.71175 75.5851 1.62705C78.1568 0.542349 81.1275 0 84.4973 0C87.5124 0 90.4388 0.451958 93.2766 1.35588C96.1143 2.25979 98.6195 3.43488 100.792 4.88114L97.5332 11.5927Z" fill="white"/>
<path d="M131.391 0.13559C134.85 0.13559 138.064 0.745733 141.035 1.96602C144.05 3.1863 146.666 4.90374 148.883 7.11833C151.144 9.33293 152.896 11.9091 154.137 14.8468C155.423 17.7393 156.066 20.8804 156.066 24.2701C156.066 27.6598 155.423 30.8461 154.137 33.829C152.896 36.7668 151.144 39.3429 148.883 41.5575C146.666 43.7721 144.05 45.5121 141.035 46.7776C138.064 47.9979 134.85 48.608 131.391 48.608C127.933 48.608 124.696 47.9979 121.681 46.7776C118.71 45.5121 116.094 43.7721 113.833 41.5575C111.616 39.3429 109.864 36.7668 108.578 33.829C107.337 30.8461 106.716 27.6598 106.716 24.2701C106.716 20.8804 107.337 17.7167 108.578 14.779C109.864 11.8413 111.616 9.28773 113.833 7.11833C116.094 4.90374 118.71 3.1863 121.681 1.96602C124.696 0.745733 127.933 0.13559 131.391 0.13559ZM131.458 6.91495C129.152 6.91495 126.979 7.36691 124.94 8.27083C122.944 9.12955 121.171 10.3498 119.619 11.9317C118.067 13.5135 116.848 15.3666 115.961 17.4908C115.118 19.5698 114.697 21.8296 114.697 24.2701C114.697 26.7107 115.141 28.9931 116.027 31.1173C116.914 33.2415 118.134 35.1171 119.685 36.7442C121.237 38.326 123.011 39.5689 125.006 40.4728C127.046 41.3767 129.196 41.8287 131.458 41.8287C133.719 41.8287 135.847 41.3767 137.843 40.4728C139.882 39.5689 141.656 38.326 143.163 36.7442C144.671 35.1171 145.846 33.2415 146.688 31.1173C147.575 28.9931 148.018 26.7107 148.018 24.2701C148.018 21.8296 147.575 19.5698 146.688 17.4908C145.846 15.3666 144.671 13.5135 143.163 11.9317C141.656 10.3498 139.882 9.12955 137.843 8.27083C135.847 7.36691 133.719 6.91495 131.458 6.91495Z" fill="white"/>
<path d="M164.418 0.610143H172.133L199.069 38.2356L197.074 38.9136V0.610143H204.789V48.0657H197.074L170.204 10.508L172.266 9.83008V48.0657H164.418V0.610143Z" fill="white"/>
<path d="M224.01 28.6089C224.01 32.7217 225.118 35.9532 227.335 38.3034C229.552 40.6536 232.545 41.8287 236.314 41.8287C240.038 41.8287 242.987 40.6762 245.16 38.3712C247.332 36.021 248.419 32.7669 248.419 28.6089V0.610143H256.267V28.6089C256.267 32.7217 255.469 36.2922 253.872 39.3203C252.276 42.3032 249.97 44.6082 246.955 46.2353C243.985 47.8171 240.437 48.608 236.314 48.608C232.146 48.608 228.554 47.8171 225.539 46.2353C222.524 44.6082 220.196 42.3032 218.556 39.3203C216.96 36.2922 216.161 32.7217 216.161 28.6089V0.610143H224.01V28.6089Z" fill="white"/>
<path d="M295.892 11.5927C294.207 10.508 292.545 9.64929 290.904 9.01655C289.263 8.38381 287.712 7.93186 286.248 7.66068C284.785 7.38951 283.455 7.25392 282.258 7.25392C279.952 7.25392 278.112 7.70588 276.738 8.60979C275.363 9.51371 274.676 10.8244 274.676 12.5418C274.676 14.0785 275.119 15.344 276.006 16.3383C276.937 17.2874 278.134 18.0783 279.597 18.711C281.105 19.2986 282.746 19.8635 284.519 20.4059C286.337 20.9482 288.133 21.5584 289.906 22.2363C291.68 22.8691 293.321 23.7052 294.828 24.7447C296.336 25.7842 297.533 27.1175 298.42 28.7445C299.306 30.3264 299.75 32.3376 299.75 34.7781C299.75 37.5803 298.996 40.0208 297.488 42.0999C295.981 44.1337 293.897 45.7155 291.237 46.8454C288.62 47.9753 285.605 48.5402 282.191 48.5402C279.753 48.5402 277.38 48.2239 275.075 47.5911C272.769 46.9132 270.596 46.0093 268.557 44.8794C266.562 43.7495 264.766 42.4388 263.17 40.9474L266.562 34.3714C268.158 35.8628 269.843 37.1283 271.616 38.1678C273.434 39.2073 275.252 39.9983 277.07 40.5406C278.932 41.0829 280.684 41.3541 282.324 41.3541C285.073 41.3541 287.202 40.8118 288.709 39.7271C290.261 38.6424 291.037 37.1283 291.037 35.1849C291.037 33.6031 290.571 32.3376 289.64 31.3885C288.754 30.3942 287.556 29.5806 286.049 28.9479C284.586 28.3151 282.945 27.7502 281.127 27.253C279.354 26.7559 277.558 26.1909 275.74 25.5582C273.966 24.8803 272.326 24.0441 270.818 23.0498C269.355 22.0555 268.158 20.7675 267.227 19.1856C266.34 17.6038 265.896 15.5925 265.896 13.152C265.896 10.4854 266.606 8.18043 268.025 6.23702C269.444 4.2484 271.417 2.71175 273.944 1.62705C276.516 0.542349 279.487 0 282.856 0C285.871 0 288.798 0.451958 291.636 1.35588C294.473 2.25979 296.979 3.43488 299.151 4.88114L295.892 11.5927Z" fill="white"/>
<path d="M21.0438 44.0902C22.1244 42.1935 24.538 41.5319 26.4347 42.6125C28.3314 43.6931 28.993 46.1067 27.9124 48.0034L27.8868 48.0476C26.8027 49.8956 24.441 50.543 22.5661 49.5061L22.5216 49.4811C20.6249 48.4005 19.9633 45.9869 21.0438 44.0902ZM26.7343 45.978C25.2437 46.1429 23.7304 46.1471 22.2216 45.9833C22.1996 46.7893 22.6112 47.5809 23.3608 48.008C24.4439 48.625 25.8222 48.2472 26.4392 47.1641C26.6527 46.7894 26.747 46.3795 26.7343 45.978ZM9.95277 36.0774C12.1357 36.0775 13.9053 37.8471 13.9052 40.03C13.9051 42.213 12.1355 43.9825 9.95256 43.9825L9.95263 42.287C10.5873 42.287 11.1606 42.025 11.5707 41.6033C10.9467 41.1089 10.3572 40.5832 9.80329 40.0299L7.6956 40.0298V40.0299C7.69558 41.2569 8.67472 42.2553 9.89432 42.2863L9.95263 42.287L9.95256 43.9825L9.90144 43.9821C7.74208 43.9547 6.00007 42.1957 6.00012 40.0298C6.00019 37.8469 7.76986 36.0773 9.95277 36.0774ZM39.5838 35.4728C41.7668 35.4729 43.5363 37.2426 43.5363 39.4255L43.5359 39.4766C43.5085 41.6359 41.7495 43.378 39.5836 43.3779L39.5837 41.6824C40.8302 41.6824 41.8408 40.6719 41.8408 39.4254C41.8408 38.7633 41.5557 38.1678 41.1016 37.7549C40.6664 38.3404 40.2046 38.8975 39.7187 39.4253H39.5837V39.5704C39.0888 40.0977 38.5698 40.595 38.0292 41.0618C38.4209 41.4339 38.946 41.667 39.5254 41.6817L39.5837 41.6824L39.5836 43.3779L39.5325 43.3775C37.3731 43.3501 35.6311 41.5911 35.6312 39.4252C35.6313 37.2423 37.4009 35.4728 39.5838 35.4728ZM8.36088 38.4298C7.94999 38.8385 7.69563 39.4045 7.6956 40.0298L9.80329 40.0299C9.29195 39.5191 8.81089 38.9848 8.36088 38.4298ZM11.8477 18.1708C15.8196 11.1991 24.6911 8.76725 31.6628 12.7391C38.6345 16.711 41.0664 25.5826 37.0945 32.5543C33.1226 39.526 24.251 41.9578 17.2793 37.986C10.3076 34.0141 7.87575 25.1425 11.8477 18.1708ZM39.7187 39.4253C39.6739 39.4739 39.6289 39.5222 39.5837 39.5704V39.4253H39.7187ZM28.589 18.1346C24.597 15.8603 19.5173 17.2528 17.2431 21.2447C14.9688 25.2366 16.3613 30.3163 20.3532 32.5905C24.3451 34.8648 29.4248 33.4724 31.6991 29.4805C33.9733 25.4885 32.5809 20.4088 28.589 18.1346ZM3.76798 24.0837C2.5899 24.1693 1.66071 25.1522 1.66071 26.3521L1.66149 26.4108C1.69262 27.6398 2.69865 28.6266 3.93516 28.6266V30.2873L3.88432 30.2869C1.73444 30.2597 1.89075e-05 28.5084 0 26.3521C0 24.1788 1.76183 22.4169 3.93516 22.4169C6.10849 22.4169 7.87033 24.1788 7.87033 26.3521C7.87031 28.5254 6.10848 30.2873 3.93516 30.2873V28.6266C3.95374 28.6266 3.97226 28.6262 3.99073 28.6258C3.75172 27.1318 3.67494 25.6084 3.76798 24.0837ZM45.0197 22.4169C45.013 22.4169 45.0064 22.4171 44.9997 22.4172C45.2121 23.8903 45.2671 25.39 45.1574 26.8895C46.3762 26.8197 47.265 25.8289 47.2935 24.7106L47.2942 24.6553L47.2935 24.5999C47.2644 23.4583 46.3388 22.4494 45.0809 22.4176L45.0197 22.4169ZM9.37253 7.63296C11.5554 7.63303 13.325 9.40269 13.3249 11.5856C13.3248 13.7685 11.5552 15.5381 9.37225 15.538C7.18934 15.538 5.41982 13.7683 5.41988 11.5854C5.41994 9.40247 7.18961 7.63289 9.37253 7.63296ZM39.0036 7.02824C41.1865 7.02831 42.9561 8.79797 42.956 10.9809L42.9557 11.032C42.9282 13.1914 41.1692 14.9334 39.0034 14.9333C36.8205 14.9333 35.0509 13.1636 35.0509 10.9807C35.051 8.79776 36.8207 7.02818 39.0036 7.02824ZM7.11528 11.5855C7.11527 12.1819 7.34669 12.7242 7.72451 13.1277C8.11642 12.5899 8.53065 12.0756 8.96525 11.5855H7.11528ZM39.0035 8.72371L39.0034 10.5611C39.6154 11.1612 40.1851 11.7946 40.711 12.4569C41.0534 12.0611 41.2605 11.5452 41.2606 10.9808C41.2606 9.75376 40.2814 8.75537 39.0618 8.72442L39.0036 8.72371H39.0035ZM9.37246 9.32843C8.12591 9.32839 7.11534 10.3389 7.11528 11.5854L8.96525 11.5855C9.52899 10.9497 10.127 10.3546 10.7546 9.80121C10.387 9.516 9.92897 9.34177 9.4307 9.32913L9.37246 9.32843ZM39.0035 8.72371C38.4467 8.7237 37.9371 8.9254 37.5435 9.25961C38.054 9.67302 38.5408 10.1075 39.0034 10.5611L39.0035 8.72371ZM21.0438 3.00741C22.1244 1.11073 24.538 0.449116 26.4347 1.52968C28.3314 2.61026 28.993 5.02387 27.9124 6.92057C26.8318 8.81725 24.4183 9.47885 22.5216 8.3983C20.6249 7.31772 19.9633 4.90411 21.0438 3.00741ZM25.5953 3.00276C24.5123 2.38576 23.134 2.7636 22.517 3.84665V3.84672C22.3545 4.13194 22.261 4.43762 22.2312 4.74448C23.7155 4.58199 25.2221 4.57877 26.7243 4.74216C26.6561 4.05699 26.2763 3.41307 25.6456 3.0323L25.5954 3.00283L25.5953 3.00276ZM48.9545 24.7066C48.9273 26.8762 47.1761 28.6266 45.0197 28.6266L44.9689 28.6262C42.819 28.5987 41.0846 26.8314 41.0846 24.6553C41.0846 22.462 42.8464 20.684 45.0197 20.684C47.1931 20.684 48.9549 22.462 48.9549 24.6553L48.9545 24.7066Z" fill="url(#paint0_radial_379_71)"/>
<defs>
<radialGradient id="paint0_radial_379_71" cx="0" cy="0" r="1" gradientTransform="matrix(34.3364 33.8218 -33.7981 34.3605 10.3972 5.34836)" gradientUnits="userSpaceOnUse">
<stop stop-color="#FF4D00"/>
<stop offset="1" stop-color="#EEFF00"/>
</radialGradient>
</defs>
</svg>
